<?xml version="1.0" encoding="utf-8"?>
<!-- Generator: Adobe Illustrator 26.3.1, SVG Export Plug-In . SVG Version: 6.00 Build 0)  -->
<svg version="1.1" xmlns="http://www.w3.org/2000/svg" xmlns:xlink="http://www.w3.org/1999/xlink" x="0px" y="0px"
	 viewBox="0 0 3809.5 1228.2" style="enable-background:new 0 0 3809.5 1228.2;" xml:space="preserve">
<style type="text/css">
	.st0{fill:#FFFFFF;}
	.st1{fill:#FFFFFF;filter:url(#Adobe_OpacityMaskFilter);}
	.st2{mask:url(#mask0_198_118_00000066496357798644253300000008414589295477719432_);}
	.st3{fill:#FFFFFF;filter:url(#Adobe_OpacityMaskFilter_00000044157261045356581450000014386860981998332605_);}
	.st4{mask:url(#mask0_198_118_00000162313392840380328480000018350043237427556022_);}
	.st5{fill:#FFFFFF;filter:url(#Adobe_OpacityMaskFilter_00000029045715320365831810000007735491590506222262_);}
	.st6{mask:url(#mask0_198_118_00000142142494810542235670000018228358496437347973_);}
	.st7{fill:#FFFFFF;filter:url(#Adobe_OpacityMaskFilter_00000149356338736971053320000016259456416989657514_);}
	.st8{mask:url(#mask0_198_118_00000040549282078663017420000009446618621784926856_);}
	.st9{fill:url(#SVGID_1_);}
	.st10{fill:url(#SVGID_00000128455056449178910220000000191389250433862787_);}
	.st11{fill:url(#SVGID_00000031915750953154172970000016020469829208638396_);}
	.st12{fill:url(#SVGID_00000092431933187155791630000011431102861351758481_);}
	.st13{fill:url(#SVGID_00000000933392678135246560000015429757065420779683_);}
	.st14{fill:url(#SVGID_00000067237333549953801430000017825958591701424271_);}
	.st15{fill:#94FF0B;}
	.st16{fill:url(#SVGID_00000148631692532174909610000004014896788844456111_);}
	.st17{fill:url(#SVGID_00000017516754201514217490000011282802415237012363_);}
	.st18{fill:url(#SVGID_00000159461280468767210940000000847061493873985680_);}
	.st19{fill:url(#SVGID_00000074436956218873509280000018033973853641256639_);}
	.st20{fill:url(#SVGID_00000102520164630032226160000001984874253364144548_);}
	.st21{fill:url(#SVGID_00000148654031567037332770000004429193446233516977_);}
	.st22{fill:url(#SVGID_00000059301778732413134480000018296935461916420512_);}
	.st23{fill:url(#SVGID_00000163073056979157239470000014157090277548766863_);}
	.st24{fill:url(#SVGID_00000126282449367646517890000005888102628946079639_);}
	.st25{fill:url(#SVGID_00000176013371951498148040000006521540225681905807_);}
	.st26{fill:url(#SVGID_00000000194145365650365240000003089591450404246929_);}
	.st27{fill:url(#SVGID_00000109030931599299110640000000047714225280347830_);}
	.st28{fill:url(#SVGID_00000096058032058557092770000010956059302858844590_);}
	.st29{fill:url(#SVGID_00000078755796568984767020000016947244903815152537_);}
	.st30{fill:url(#SVGID_00000178203642228337822160000001370300903845070515_);}
	.st31{fill:url(#SVGID_00000016044763390064165180000014099222131454270624_);}
	.st32{fill:url(#SVGID_00000035492768051563550560000003421356973981168261_);}
	.st33{fill:url(#SVGID_00000105392417451746659990000018001162463406348717_);}
	.st34{fill:#FFFFFF;filter:url(#Adobe_OpacityMaskFilter_00000128450933003367335320000004970880581764636036_);}
	.st35{mask:url(#mask0_198_118_00000040573899428452045680000010273621107711616674_);}
	.st36{fill:url(#SVGID_00000141416101595870040250000006473243465646395278_);}
	.st37{fill:url(#SVGID_00000183215784495944344080000005151299094156370338_);}
	.st38{fill:url(#SVGID_00000035510215365512768670000014251227902342447798_);}
	.st39{fill:url(#SVGID_00000167359451605677419000000015749149040121086341_);}
	.st40{fill:url(#SVGID_00000013157694925732009100000009634570186492716718_);}
	.st41{fill:url(#SVGID_00000120544044974253979650000008574342738363126929_);}
	.st42{fill:#FFFFFF;filter:url(#Adobe_OpacityMaskFilter_00000145774513707956829110000017079512520172703655_);}
	.st43{mask:url(#mask0_198_118_00000006677985894063587980000016701197058830373793_);}
</style>
<g id="Layer_1">
	<g>
		<g>
			<defs>
				<filter id="Adobe_OpacityMaskFilter" filterUnits="userSpaceOnUse" x="1546.2" y="380.5" width="2216.9" height="485.3">
					<feColorMatrix  type="matrix" values="1 0 0 0 0  0 1 0 0 0  0 0 1 0 0  0 0 0 1 0"/>
				</filter>
			</defs>
			
				<mask maskUnits="userSpaceOnUse" x="1546.2" y="380.5" width="2216.9" height="485.3" id="mask0_198_118_00000162313392840380328480000018350043237427556022_">
				<path class="st1" d="M3818.3,32.9H8.8v1162.3h3809.5V32.9z"/>
			</mask>
			<g class="st4">
				<path class="st0" d="M1680.5,859.2h75.5l105.2-360.6l105.2,360.6h74.9l134.3-464.1h-78.1l-94.3,357.3l-100.1-357.3h-84.6
					l-99.4,357.3l-94.9-357.3h-78.1L1680.5,859.2z M2309.7,865.8c49.7,0,84.6-17.9,103.3-46.4c1.9,17.9,5.8,31.2,11.6,39.8h65.2
					c-7.1-17.9-10.3-39.8-10.3-66.3v-177c0-73.6-48.4-113.4-134.3-113.4c-62.6,0-113,26.5-139.5,64.3l43.3,41.8
					c22.6-29.8,53-45.1,92.3-45.1c47.1,0,71,15.9,71,44.4c0,29.8-23.9,44.4-89.1,44.4c-37.5,0-69.1,8.6-94.3,25.9
					c-25.2,17.9-38.1,44.4-38.1,80.2C2190.8,826.7,2239.3,865.8,2309.7,865.8z M2320.6,808.1c-38.1,0-60.7-19.2-60.7-51
					c0-32.5,24.5-51,66.5-51c52.3,0,73.6-4.6,85.9-19.9v37.1C2412.3,773.6,2378.1,808.1,2320.6,808.1z M2692.8,865.8
					c88.4,0,141.4-48.4,141.4-108.7c0-59-36.2-88.2-111.7-102.1c-64.6-11.3-93-24.5-93-51.7c0-24.5,25.8-40.4,65.2-40.4
					c34.2,0,62,11.9,82,36.5l45.8-40.4c-28.4-35.1-73-56.4-129.1-56.4c-73.6,0-130.4,41.8-130.4,101.4c0,55.7,38.1,90.2,114.9,103.4
					c62.6,10.6,87.2,22.5,87.2,49.7c0,27.2-26.5,47.1-71,47.1c-40.7,0-70.4-16.6-87.8-50.4l-60,30.5c10.3,24.5,29.7,43.8,57.5,59
					C2631.4,858.5,2661.1,865.8,2692.8,865.8z M3008.9,865.8c49.7,0,84.6-17.9,103.3-46.4c1.9,17.9,5.8,31.2,11.6,39.8h65.2
					c-7.1-17.9-10.3-39.8-10.3-66.3v-177c0-73.6-48.4-113.4-134.3-113.4c-62.6,0-113,26.5-139.5,64.3l43.3,41.8
					c22.6-29.8,53-45.1,92.3-45.1c47.1,0,71,15.9,71,44.4c0,29.8-23.9,44.4-89.1,44.4c-37.4,0-69.1,8.6-94.3,25.9
					c-25.2,17.9-38.1,44.4-38.1,80.2C2890.1,826.7,2938.6,865.8,3008.9,865.8z M3019.9,808.1c-38.1,0-60.7-19.2-60.7-51
					c0-32.5,24.5-51,66.5-51c52.3,0,73.6-4.6,85.9-19.9v37.1C3111.6,773.6,3077.4,808.1,3019.9,808.1z M3451,502.5
					c-48.4,0-89.1,21.2-111.7,49.7V388.5h-69.7v470.7h62.6l12.9-33.8c23.9,25.9,59.4,40.4,100.7,40.4
					c100.1,0,165.3-75.6,165.3-182.3S3546.5,502.5,3451,502.5z M3439.3,804.1c-63.9,0-105.2-54.4-105.2-120.7
					s41.3-119.3,105.2-119.3c31.6,0,56.8,11.3,74.9,33.8c18.1,23.2,27.1,51.7,27.1,85.5c0,34.5-9,63-27.1,86.2
					C3496.2,792.9,3471,804.1,3439.3,804.1z M3690.1,859.2h69.7v-350h-69.7V859.2z M3687.5,458.7h75.6v-78.2h-75.6V458.7z"/>
			</g>
		</g>
	</g>
	<g>
		<radialGradient id="SVGID_1_" cx="779.8604" cy="358.7716" r="293.5724" gradientUnits="userSpaceOnUse">
			<stop  offset="0" style="stop-color:#94FF0B;stop-opacity:0"/>
			<stop  offset="0.7" style="stop-color:#94FF0B;stop-opacity:0.6"/>
			<stop  offset="0.9994" style="stop-color:#94FF0B"/>
		</radialGradient>
		<path class="st9" d="M779.6,67.5c-53.3,0-103.4,14.3-146.4,39.2c87.5,50.6,146.4,145.3,146.4,253.7s-58.9,203-146.4,253.7
			c43.1,24.9,93.1,39.2,146.4,39.2c161.8,0,292.9-131.1,292.9-292.9S941.4,67.5,779.6,67.5z"/>
		
			<radialGradient id="SVGID_00000005242647481710558220000017441164234839014315_" cx="485.8442" cy="868.9167" r="290.6423" gradientUnits="userSpaceOnUse">
			<stop  offset="0" style="stop-color:#94FF0B;stop-opacity:0"/>
			<stop  offset="0.7" style="stop-color:#94FF0B;stop-opacity:0.6"/>
			<stop  offset="1" style="stop-color:#94FF0B"/>
		</radialGradient>
		<path style="fill:url(#SVGID_00000005242647481710558220000017441164234839014315_);" d="M486.7,867.8
			c0-108.4,58.9-203,146.4-253.7c-43.1-24.9-93.1-39.2-146.4-39.2C325,574.9,193.9,706,193.9,867.8s131.1,292.9,292.9,292.9
			c53.3,0,103.4-14.3,146.4-39.2C545.6,1070.8,486.7,976.2,486.7,867.8z"/>
		
			<radialGradient id="SVGID_00000070798389727606379200000014108931872917991310_" cx="486.7415" cy="361.3154" r="293.0818" gradientUnits="userSpaceOnUse">
			<stop  offset="0" style="stop-color:#94FF0B;stop-opacity:0"/>
			<stop  offset="0.7" style="stop-color:#94FF0B;stop-opacity:0.6"/>
			<stop  offset="1" style="stop-color:#94FF0B"/>
		</radialGradient>
		<path style="fill:url(#SVGID_00000070798389727606379200000014108931872917991310_);" d="M779.6,360.4
			c0-161.8-131.1-292.9-292.9-292.9S193.9,198.7,193.9,360.4l0,0c43.1-24.9,93.1-39.2,146.4-39.2c161.8,0,292.9,131.1,292.9,292.9
			C720.7,563.4,779.6,468.8,779.6,360.4z"/>
		
			<radialGradient id="SVGID_00000075129282385501080510000006596287868967633080_" cx="341.0848" cy="611.6154" r="292.6436" gradientUnits="userSpaceOnUse">
			<stop  offset="0" style="stop-color:#94FF0B;stop-opacity:0"/>
			<stop  offset="0.7" style="stop-color:#94FF0B;stop-opacity:0.6"/>
			<stop  offset="1" style="stop-color:#94FF0B"/>
		</radialGradient>
		<path style="fill:url(#SVGID_00000075129282385501080510000006596287868967633080_);" d="M486.7,574.9
			c53.3,0,103.4,14.3,146.4,39.2c0-161.8-131.1-292.9-292.9-292.9S47.4,452.3,47.4,614.1c0,108.4,58.9,203,146.4,253.7
			C193.9,706,325,574.9,486.7,574.9z"/>
		
			<radialGradient id="SVGID_00000070094839631321807150000012806538868473904526_" cx="780.856" cy="867.5288" r="295.2451" gradientUnits="userSpaceOnUse">
			<stop  offset="0" style="stop-color:#94FF0B;stop-opacity:0"/>
			<stop  offset="0.7" style="stop-color:#94FF0B;stop-opacity:0.6"/>
			<stop  offset="1" style="stop-color:#94FF0B"/>
		</radialGradient>
		<path style="fill:url(#SVGID_00000070094839631321807150000012806538868473904526_);" d="M633.2,614.1
			c-87.5,50.6-146.4,145.3-146.4,253.7c0,108.4,58.9,203,146.4,253.7c43.1,24.9,93.1,39.2,146.4,39.2
			c161.8,0,292.9-131.1,292.9-292.9v0c-43.1,24.9-93.1,39.2-146.4,39.2C764.3,907,633.2,775.8,633.2,614.1z"/>
		
			<radialGradient id="SVGID_00000068650128385830818410000011088262166021359039_" cx="926.7319" cy="615.0779" r="289.3072" gradientUnits="userSpaceOnUse">
			<stop  offset="0" style="stop-color:#94FF0B;stop-opacity:0"/>
			<stop  offset="0.7" style="stop-color:#94FF0B;stop-opacity:0.6"/>
			<stop  offset="1" style="stop-color:#94FF0B"/>
		</radialGradient>
		<path style="fill:url(#SVGID_00000068650128385830818410000011088262166021359039_);" d="M1072.5,360.4
			c0,161.8-131.1,292.9-292.9,292.9c-53.3,0-103.4-14.3-146.4-39.2c0,161.8,131.1,292.9,292.9,292.9
			c161.8,0,292.9-131.1,292.9-292.9C1218.9,505.7,1160,411,1072.5,360.4z"/>
		<g>
			<path class="st15" d="M779.6,654.3c-51.7,0-102.5-13.6-146.9-39.3l-1.5-0.9l1.5-0.9c43.6-25.2,80.1-61.5,105.7-104.8
				c26.3-44.7,40.3-95.8,40.3-148s-13.9-103.3-40.3-148c-25.6-43.4-62.1-79.6-105.7-104.8l-1.5-0.9l1.5-0.9
				c44.5-25.7,95.3-39.3,146.9-39.3c78.5,0,152.3,30.6,207.8,86.1c55.5,55.5,86.1,129.3,86.1,207.8c0,78.5-30.6,152.3-86.1,207.8
				C931.9,623.7,858.1,654.3,779.6,654.3z M635.2,614.1c43.8,25,93.7,38.2,144.4,38.2c78,0,151.3-30.4,206.4-85.5
				s85.5-128.4,85.5-206.4c0-78-30.4-151.3-85.5-206.4c-55.1-55.1-128.4-85.5-206.4-85.5c-50.7,0-100.6,13.2-144.4,38.2
				c43.2,25.3,79.5,61.5,104.9,104.7c26.5,45,40.5,96.5,40.5,149s-14,104-40.5,149C714.6,552.6,678.4,588.7,635.2,614.1z"/>
			<path class="st15" d="M486.7,1161.6c-78.5,0-152.3-30.6-207.8-86.1c-55.5-55.5-86.1-129.3-86.1-207.8
				c0-78.5,30.6-152.3,86.1-207.8c55.5-55.5,129.3-86.1,207.8-86.1c51.7,0,102.5,13.6,146.9,39.3l1.5,0.9l-1.5,0.9
				c-43.6,25.2-80.1,61.5-105.7,104.8c-26.3,44.7-40.3,95.8-40.3,148c0,52.1,13.9,103.3,40.3,148c25.6,43.4,62.1,79.6,105.7,104.8
				l1.5,0.9l-1.5,0.9C589.2,1148.1,538.4,1161.6,486.7,1161.6z M486.7,575.9c-78,0-151.3,30.4-206.4,85.5
				c-55.1,55.1-85.5,128.4-85.5,206.4c0,78,30.4,151.3,85.5,206.4c55.1,55.1,128.4,85.5,206.4,85.5c50.7,0,100.6-13.2,144.4-38.2
				c-43.2-25.3-79.5-61.5-104.9-104.7c-26.5-45-40.5-96.5-40.5-149s14-104,40.5-149c25.4-43.2,61.7-79.3,104.9-104.7
				C587.4,589.1,537.5,575.9,486.7,575.9z"/>
			<path class="st15" d="M632.2,615.8v-1.7c0-78-30.4-151.3-85.5-206.4c-55.1-55.1-128.4-85.5-206.4-85.5
				c-51.3,0-101.8,13.5-145.9,39.1l-1.5,0.9v-1.7c0-78.5,30.6-152.3,86.1-207.8s129.3-86.1,207.8-86.1S639,97.1,694.5,152.6
				c55.5,55.5,86.1,129.3,86.1,207.8c0,52.5-14,104-40.5,149c-25.7,43.7-62.5,80.2-106.4,105.5L632.2,615.8z M340.3,320.2
				c78.5,0,152.3,30.6,207.8,86.1c55.1,55.1,85.6,128.2,86.1,206.1c42.9-25.2,78.9-61.1,104.2-104c26.3-44.7,40.3-95.8,40.3-148
				c0-78-30.4-151.3-85.5-206.4S564.7,68.5,486.7,68.5S335.5,98.9,280.4,154c-54.7,54.7-85,127.3-85.5,204.7
				C239,333.5,289.2,320.2,340.3,320.2z"/>
			<path class="st15" d="M194.9,869.5l-1.5-0.9c-43.9-25.4-80.7-61.9-106.4-105.5c-26.5-45-40.5-96.5-40.5-149
				c0-78.5,30.6-152.3,86.1-207.8c55.5-55.5,129.3-86.1,207.8-86.1s152.3,30.6,207.8,86.1c55.5,55.5,86.1,129.3,86.1,207.8v1.7
				l-1.5-0.9c-44.2-25.6-94.6-39.1-145.9-39.1c-78,0-151.3,30.4-206.4,85.5c-55.1,55.1-85.5,128.4-85.5,206.4V869.5z M340.3,322.2
				c-78,0-151.3,30.4-206.4,85.5c-55.1,55.1-85.5,128.4-85.5,206.4c0,52.1,13.9,103.3,40.3,148C114,805,150,840.9,192.9,866
				c0.4-77.8,31-151,86.1-206.1c55.5-55.5,129.3-86.1,207.8-86.1c51.1,0,101.3,13.3,145.4,38.5c-0.4-77.3-30.8-149.9-85.5-204.7
				C491.6,352.6,418.3,322.2,340.3,322.2z"/>
			<path class="st15" d="M779.6,1161.6c-51.7,0-102.5-13.6-146.9-39.3c-43.9-25.4-80.7-61.9-106.4-105.5
				c-26.5-45-40.5-96.5-40.5-149s14-104,40.5-149c25.7-43.7,62.5-80.2,106.4-105.5l1.5-0.9v1.7c0,78,30.4,151.3,85.5,206.4
				c55.1,55.1,128.4,85.5,206.4,85.5c51.3,0,101.8-13.5,145.9-39.1l1.5-0.9v1.7c0,78.5-30.6,152.3-86.1,207.8
				C931.9,1131.1,858.1,1161.6,779.6,1161.6z M632.2,615.8c-42.9,25.2-78.9,61.1-104.2,104c-26.3,44.7-40.3,95.8-40.3,148
				c0,52.1,13.9,103.3,40.3,148c25.6,43.4,62.1,79.6,105.7,104.8c44.2,25.6,94.6,39.1,145.9,39.1c78,0,151.3-30.4,206.4-85.5
				c54.7-54.7,85-127.3,85.5-204.7c-44.1,25.2-94.4,38.5-145.4,38.5c-78.5,0-152.3-30.6-207.8-86.1
				C663.2,766.8,632.6,693.7,632.2,615.8z"/>
			<path class="st15" d="M926.1,908c-78.5,0-152.3-30.6-207.8-86.1c-55.5-55.5-86.1-129.3-86.1-207.8v-1.7l1.5,0.9
				c44.2,25.6,94.6,39.1,145.9,39.1c78,0,151.3-30.4,206.4-85.5c55.1-55.1,85.5-128.4,85.5-206.4v-1.7l1.5,0.9
				c43.9,25.4,80.7,61.9,106.4,105.5c26.5,45,40.5,96.5,40.5,149c0,78.5-30.6,152.3-86.1,207.8C1078.4,877.4,1004.6,908,926.1,908z
				 M634.2,615.8c0.4,77.3,30.8,149.9,85.5,204.7c55.1,55.1,128.4,85.5,206.4,85.5s151.3-30.4,206.4-85.5
				c55.1-55.1,85.5-128.4,85.5-206.4c0-52.1-13.9-103.3-40.3-148c-25.3-42.9-61.3-78.8-104.2-104c-0.4,77.8-31,151-86.1,206.1
				c-55.5,55.5-129.3,86.1-207.8,86.1C728.5,654.3,678.3,641,634.2,615.8z"/>
		</g>
	</g>
</g>
<g id="Layer_3">
</g>
<g id="Layer_2">
</g>
</svg>
