<svg width="239" height="245" viewBox="0 0 239 245" fill="none" xmlns="http://www.w3.org/2000/svg" style="">
<path d="M105.671 129.946C104.331 129.166 103.174 128.057 102.345 126.619C99.8349 122.281 101.321 116.725 105.671 114.203C110.009 111.693 115.565 113.18 118.088 117.53C118.916 118.967 119.306 120.527 119.306 122.062C116.589 120.49 113.141 120.381 110.216 122.062C107.304 123.756 105.684 126.814 105.671 129.946Z" fill="url(#paint0_radial_1_192)" class="bgFNYFla_0"></path>
<path fill-rule="evenodd" clip-rule="evenodd" d="M117.979 117.592C115.492 113.302 110.012 111.836 105.734 114.311C101.444 116.799 99.9779 122.279 102.453 126.557L102.453 126.557C103.232 127.908 104.306 128.965 105.55 129.728C105.635 126.63 107.269 123.632 110.154 121.954L110.154 121.954C113.051 120.288 116.455 120.356 119.179 121.847C119.144 120.403 118.758 118.943 117.979 117.592ZM105.609 114.095C110.007 111.55 115.639 113.058 118.196 117.467L118.196 117.467C119.036 118.924 119.431 120.506 119.431 122.062V122.279L119.244 122.17C116.564 120.62 113.163 120.512 110.279 122.171C107.407 123.841 105.809 126.857 105.797 129.946L105.796 130.163L105.609 130.054C104.251 129.264 103.077 128.139 102.237 126.682C99.6921 122.284 101.199 116.652 105.609 114.095L105.609 114.095Z" fill="#94FF0B" class="bgFNYFla_1"></path>
<path d="M119.305 106.343C120.646 105.564 122.193 105.137 123.838 105.125C128.858 105.125 132.928 109.195 132.915 114.203C132.915 119.223 128.846 123.292 123.838 123.28C122.181 123.28 120.633 122.829 119.305 122.062C122.022 120.49 123.838 117.553 123.85 114.203C123.838 110.852 122.022 107.915 119.305 106.343Z" fill="url(#paint1_radial_1_192)" class="bgFNYFla_2"></path>
<path fill-rule="evenodd" clip-rule="evenodd" d="M123.837 105L123.838 105C128.927 105 133.053 109.126 133.04 114.203C133.04 119.292 128.915 123.418 123.838 123.405C122.158 123.405 120.589 122.948 119.243 122.17L119.056 122.062L119.243 121.954C121.923 120.403 123.713 117.507 123.725 114.203C123.713 110.898 121.922 108.002 119.243 106.452L119.056 106.344L119.242 106.235C120.602 105.444 122.171 105.012 123.837 105ZM132.79 114.202C132.802 109.264 128.789 105.25 123.838 105.25C122.291 105.262 120.832 105.645 119.554 106.346C122.205 107.964 123.963 110.883 123.975 114.202V114.203C123.963 117.522 122.205 120.44 119.555 122.059C120.822 122.752 122.281 123.155 123.838 123.155H123.838C128.777 123.167 132.79 119.154 132.79 114.203V114.202Z" fill="#94FF0B" class="bgFNYFla_3"></path>
<path d="M105.67 114.203C105.67 112.668 106.072 111.096 106.889 109.67C109.399 105.333 114.943 103.834 119.305 106.344C123.643 108.854 125.141 114.398 122.631 118.76C121.803 120.198 120.645 121.307 119.305 122.087C119.305 118.943 117.672 115.897 114.76 114.227C111.848 112.534 108.387 112.656 105.67 114.203Z" fill="url(#paint2_radial_1_192)" class="bgFNYFla_4"></path>
<path fill-rule="evenodd" clip-rule="evenodd" d="M119.242 106.452C114.94 103.977 109.473 105.455 106.997 109.733C106.23 111.073 105.833 112.544 105.798 113.99C108.522 112.522 111.937 112.441 114.823 114.119C117.707 115.773 119.353 118.759 119.427 121.868C120.671 121.106 121.744 120.049 122.523 118.698C124.999 114.395 123.52 108.928 119.242 106.452ZM106.781 109.608C109.325 105.211 114.945 103.691 119.367 106.236L119.368 106.236C123.765 108.78 125.284 114.401 122.74 118.822L122.74 118.823C121.9 120.28 120.726 121.404 119.368 122.195L119.18 122.304V122.087C119.18 118.986 117.57 115.982 114.698 114.336L114.697 114.336C111.826 112.665 108.413 112.785 105.732 114.312L105.545 114.418V114.203C105.545 112.646 105.953 111.053 106.78 109.608L106.781 109.608Z" fill="#94FF0B" class="bgFNYFla_5"></path>
<path d="M132.928 114.215C134.269 114.995 135.426 116.104 136.255 117.541C138.765 121.879 137.278 127.435 132.928 129.957C128.59 132.468 123.034 130.981 120.512 126.631C119.684 125.193 119.294 123.634 119.294 122.098C122.011 123.67 125.459 123.78 128.383 122.098C131.296 120.405 132.916 117.346 132.928 114.215Z" fill="url(#paint3_radial_1_192)" class="bgFNYFla_6"></path>
<path fill-rule="evenodd" clip-rule="evenodd" d="M132.804 113.998L132.991 114.107C134.349 114.897 135.523 116.021 136.363 117.479C138.908 121.877 137.4 127.509 132.991 130.066L132.991 130.066C128.593 132.61 122.961 131.103 120.404 126.694L120.404 126.694C119.564 125.236 119.169 123.655 119.169 122.098V121.882L119.356 121.99C122.036 123.54 125.436 123.649 128.321 121.99C131.193 120.32 132.791 117.304 132.803 114.214L132.804 113.998ZM133.05 114.433C132.965 117.53 131.331 120.529 128.446 122.207L128.446 122.207C125.549 123.872 122.145 123.804 119.421 122.314C119.456 123.758 119.842 125.217 120.62 126.569C123.108 130.859 128.588 132.325 132.866 129.849C137.156 127.361 138.622 121.882 136.146 117.604L136.146 117.604C135.368 116.252 134.294 115.196 133.05 114.433Z" fill="#94FF0B" class="bgFNYFla_7"></path>
<path d="M119.294 137.817C117.954 138.596 116.406 139.023 114.761 139.035C109.741 139.035 105.672 134.965 105.684 129.957C105.684 124.937 109.754 120.868 114.761 120.88C116.419 120.88 117.966 121.331 119.294 122.098C116.577 123.67 114.761 126.607 114.761 129.97C114.761 133.308 116.577 136.245 119.294 137.817Z" fill="url(#paint4_radial_1_192)" class="bgFNYFla_8"></path>
<path fill-rule="evenodd" clip-rule="evenodd" d="M114.761 121.005C109.823 120.993 105.809 125.006 105.809 129.957L105.809 129.958C105.797 134.896 109.81 138.91 114.761 138.91C116.309 138.899 117.768 138.515 119.045 137.814C116.394 136.196 114.636 133.278 114.636 129.97C114.636 126.638 116.394 123.72 119.044 122.101C117.777 121.408 116.318 121.005 114.761 121.005L114.761 121.005ZM114.762 120.755C109.684 120.743 105.559 124.868 105.559 129.957C105.559 129.957 105.559 129.957 105.559 129.957L105.684 129.957H105.559C105.559 129.957 105.559 129.957 105.559 129.957C105.547 135.035 109.673 139.16 114.761 139.16L114.762 139.16C116.429 139.148 117.997 138.716 119.357 137.925L119.543 137.816L119.357 137.708C116.677 136.158 114.886 133.262 114.886 129.97C114.886 126.653 116.677 123.757 119.357 122.207L119.544 122.098L119.357 121.99C118.01 121.212 116.442 120.755 114.762 120.755Z" fill="#94FF0B" class="bgFNYFla_9"></path>
<path d="M132.916 129.945C132.916 131.48 132.514 133.052 131.698 134.478C129.188 138.816 123.644 140.314 119.282 137.804C114.944 135.294 113.445 129.75 115.955 125.388C116.784 123.95 117.941 122.842 119.282 122.062C119.282 125.205 120.914 128.252 123.826 129.921C126.751 131.627 130.211 131.505 132.916 129.945Z" fill="url(#paint5_radial_1_192)" class="bgFNYFla_10"></path>
<path fill-rule="evenodd" clip-rule="evenodd" d="M119.407 121.844V122.062C119.407 125.163 121.017 128.166 123.889 129.812L123.889 129.813C126.773 131.495 130.186 131.375 132.854 129.837L133.041 129.729V129.945C133.041 131.502 132.633 133.095 131.806 134.54L131.806 134.54C129.261 138.938 123.641 140.457 119.219 137.913L119.219 137.913C114.822 135.368 113.302 129.748 115.847 125.326L115.847 125.326C116.687 123.868 117.861 122.744 119.219 121.954L119.407 121.844ZM119.159 122.28C117.915 123.043 116.842 124.099 116.064 125.451C113.588 129.753 115.066 135.22 119.344 137.696C123.646 140.171 129.114 138.694 131.589 134.416C132.357 133.076 132.753 131.605 132.789 130.16C130.076 131.639 126.66 131.718 123.764 130.029C120.879 128.375 119.233 125.389 119.159 122.28Z" fill="#94FF0B" class="bgFNYFla_11"></path>
<g opacity="0.5">
<path d="M119.601 231.343C149.765 231.343 174.217 182.438 174.217 122.11C174.217 61.7816 149.765 12.876 119.601 12.876C89.4367 12.876 64.9839 61.7816 64.9839 122.11C64.9839 182.438 89.4367 231.343 119.601 231.343Z" stroke="#94FF0B" stroke-width="2" stroke-miterlimit="10" class="bgFNYFla_12"></path>
<path d="M167.153 220.641C194.331 207.553 195.143 152.879 168.967 98.5234C142.79 44.1678 99.5383 10.714 72.3606 23.8021C45.1828 36.8903 44.3709 91.5643 70.5473 145.92C96.7236 200.275 139.976 233.729 167.153 220.641Z" stroke="#94FF0B" stroke-width="2" stroke-miterlimit="10" class="bgFNYFla_13"></path>
<path d="M204.851 190.366C223.659 166.784 200.671 117.174 153.506 79.5595C106.342 41.945 52.861 30.5696 34.0537 54.1518C15.2464 77.734 38.2345 127.344 85.3989 164.958C132.563 202.573 186.044 213.948 204.851 190.366Z" stroke="#94FF0B" stroke-width="2" stroke-miterlimit="10" class="bgFNYFla_14"></path>
<path d="M225.871 146.409C232.583 117.002 190.345 82.2815 131.532 68.8585C72.7178 55.4355 19.5991 68.3931 12.8876 97.8C6.17609 127.207 48.4134 161.927 107.227 175.35C166.041 188.773 219.16 175.816 225.871 146.409Z" stroke="#94FF0B" stroke-width="2" stroke-miterlimit="10" class="bgFNYFla_15"></path>
<path d="M131.564 175.276C190.378 161.853 232.615 127.132 225.904 97.7253C219.192 68.3184 166.073 55.3609 107.26 68.7839C48.4458 82.2069 6.20856 116.927 12.9201 146.334C19.6316 175.741 72.7503 188.699 131.564 175.276Z" stroke="#94FF0B" stroke-width="2" stroke-miterlimit="10" class="bgFNYFla_16"></path>
<path d="M153.601 164.629C200.766 127.015 223.754 77.4051 204.946 53.8229C186.139 30.2407 132.658 41.6161 85.494 79.2306C38.3295 116.845 15.3415 166.455 34.1487 190.037C52.956 213.619 106.437 202.244 153.601 164.629Z" stroke="#94FF0B" stroke-width="2" stroke-miterlimit="10" class="bgFNYFla_17"></path>
<path d="M168.988 145.816C195.164 91.4603 194.353 36.7864 167.175 23.6982C139.997 10.61 96.7449 44.0639 70.5686 98.4195C44.3922 152.775 45.2041 207.449 72.3819 220.537C99.5596 233.625 142.812 200.171 168.988 145.816Z" stroke="#94FF0B" stroke-width="2" stroke-miterlimit="10" class="bgFNYFla_18"></path>
</g>
<defs>
<radialGradient id="paint0_radial_1_192" cx="0" cy="0" r="1" gradientUnits="userSpaceOnUse" gradientTransform="translate(109.272 121.131) rotate(45) scale(7.75378 9.08928)">
<stop stop-color="#94FF0B" stop-opacity="0"></stop>
<stop offset="0.697925" stop-color="#94FF0B" stop-opacity="0.604171"></stop>
<stop offset="1" stop-color="#94FF0B"></stop>
</radialGradient>
<radialGradient id="paint1_radial_1_192" cx="0" cy="0" r="1" gradientUnits="userSpaceOnUse" gradientTransform="translate(124.063 114.203) rotate(45) scale(8.92169 8.92171)">
<stop stop-color="#94FF0B" stop-opacity="0"></stop>
<stop offset="0.697925" stop-color="#94FF0B" stop-opacity="0.604171"></stop>
<stop offset="1" stop-color="#94FF0B"></stop>
</radialGradient>
<radialGradient id="paint2_radial_1_192" cx="0" cy="0" r="1" gradientUnits="userSpaceOnUse" gradientTransform="translate(115.704 113.271) rotate(45) scale(9.08981 7.75435)">
<stop stop-color="#94FF0B" stop-opacity="0"></stop>
<stop offset="0.697925" stop-color="#94FF0B" stop-opacity="0.604171"></stop>
<stop offset="1" stop-color="#94FF0B"></stop>
</radialGradient>
<radialGradient id="paint3_radial_1_192" cx="0" cy="0" r="1" gradientUnits="userSpaceOnUse" gradientTransform="translate(129.328 123.03) rotate(45) scale(7.75378 9.08928)">
<stop stop-color="#94FF0B" stop-opacity="0"></stop>
<stop offset="0.697925" stop-color="#94FF0B" stop-opacity="0.604171"></stop>
<stop offset="1" stop-color="#94FF0B"></stop>
</radialGradient>
<radialGradient id="paint4_radial_1_192" cx="0" cy="0" r="1" gradientUnits="userSpaceOnUse" gradientTransform="translate(114.536 129.957) rotate(45) scale(8.92169 8.92171)">
<stop stop-color="#94FF0B" stop-opacity="0"></stop>
<stop offset="0.697925" stop-color="#94FF0B" stop-opacity="0.604171"></stop>
<stop offset="1" stop-color="#94FF0B"></stop>
</radialGradient>
<radialGradient id="paint5_radial_1_192" cx="0" cy="0" r="1" gradientUnits="userSpaceOnUse" gradientTransform="translate(122.882 130.877) rotate(45) scale(9.08981 7.75435)">
<stop stop-color="#94FF0B" stop-opacity="0"></stop>
<stop offset="0.697925" stop-color="#94FF0B" stop-opacity="0.604171"></stop>
<stop offset="1" stop-color="#94FF0B"></stop>
</radialGradient>
</defs>
<style data-made-with="vivus-instant">.bgFNYFla_0{stroke-dasharray:58 60;stroke-dashoffset:59;animation:bgFNYFla_draw_0 3800ms ease 0ms infinite,bgFNYFla_fade 3800ms linear 0ms infinite;}.bgFNYFla_1{stroke-dasharray:115 117;stroke-dashoffset:116;animation:bgFNYFla_draw_1 3800ms ease 0ms infinite,bgFNYFla_fade 3800ms linear 0ms infinite;}.bgFNYFla_2{stroke-dasharray:58 60;stroke-dashoffset:59;animation:bgFNYFla_draw_2 3800ms ease 0ms infinite,bgFNYFla_fade 3800ms linear 0ms infinite;}.bgFNYFla_3{stroke-dasharray:115 117;stroke-dashoffset:116;animation:bgFNYFla_draw_3 3800ms ease 0ms infinite,bgFNYFla_fade 3800ms linear 0ms infinite;}.bgFNYFla_4{stroke-dasharray:58 60;stroke-dashoffset:59;animation:bgFNYFla_draw_4 3800ms ease 0ms infinite,bgFNYFla_fade 3800ms linear 0ms infinite;}.bgFNYFla_5{stroke-dasharray:115 117;stroke-dashoffset:116;animation:bgFNYFla_draw_5 3800ms ease 0ms infinite,bgFNYFla_fade 3800ms linear 0ms infinite;}.bgFNYFla_6{stroke-dasharray:58 60;stroke-dashoffset:59;animation:bgFNYFla_draw_6 3800ms ease 0ms infinite,bgFNYFla_fade 3800ms linear 0ms infinite;}.bgFNYFla_7{stroke-dasharray:115 117;stroke-dashoffset:116;animation:bgFNYFla_draw_7 3800ms ease 0ms infinite,bgFNYFla_fade 3800ms linear 0ms infinite;}.bgFNYFla_8{stroke-dasharray:58 60;stroke-dashoffset:59;animation:bgFNYFla_draw_8 3800ms ease 0ms infinite,bgFNYFla_fade 3800ms linear 0ms infinite;}.bgFNYFla_9{stroke-dasharray:115 117;stroke-dashoffset:116;animation:bgFNYFla_draw_9 3800ms ease 0ms infinite,bgFNYFla_fade 3800ms linear 0ms infinite;}.bgFNYFla_10{stroke-dasharray:58 60;stroke-dashoffset:59;animation:bgFNYFla_draw_10 3800ms ease 0ms infinite,bgFNYFla_fade 3800ms linear 0ms infinite;}.bgFNYFla_11{stroke-dasharray:115 117;stroke-dashoffset:116;animation:bgFNYFla_draw_11 3800ms ease 0ms infinite,bgFNYFla_fade 3800ms linear 0ms infinite;}.bgFNYFla_12{stroke-dasharray:530 532;stroke-dashoffset:531;animation:bgFNYFla_draw_12 3800ms ease 0ms infinite,bgFNYFla_fade 3800ms linear 0ms infinite;}.bgFNYFla_13{stroke-dasharray:530 532;stroke-dashoffset:531;animation:bgFNYFla_draw_13 3800ms ease 0ms infinite,bgFNYFla_fade 3800ms linear 0ms infinite;}.bgFNYFla_14{stroke-dasharray:530 532;stroke-dashoffset:531;animation:bgFNYFla_draw_14 3800ms ease 0ms infinite,bgFNYFla_fade 3800ms linear 0ms infinite;}.bgFNYFla_15{stroke-dasharray:530 532;stroke-dashoffset:531;animation:bgFNYFla_draw_15 3800ms ease 0ms infinite,bgFNYFla_fade 3800ms linear 0ms infinite;}.bgFNYFla_16{stroke-dasharray:530 532;stroke-dashoffset:531;animation:bgFNYFla_draw_16 3800ms ease 0ms infinite,bgFNYFla_fade 3800ms linear 0ms infinite;}.bgFNYFla_17{stroke-dasharray:530 532;stroke-dashoffset:531;animation:bgFNYFla_draw_17 3800ms ease 0ms infinite,bgFNYFla_fade 3800ms linear 0ms infinite;}.bgFNYFla_18{stroke-dasharray:530 532;stroke-dashoffset:531;animation:bgFNYFla_draw_18 3800ms ease 0ms infinite,bgFNYFla_fade 3800ms linear 0ms infinite;}@keyframes bgFNYFla_draw{100%{stroke-dashoffset:0;}}@keyframes bgFNYFla_fade{0%{stroke-opacity:1;}89.47368421052632%{stroke-opacity:1;}100%{stroke-opacity:0;}}@keyframes bgFNYFla_draw_0{0%{stroke-dashoffset: 59}73.68421052631578%{ stroke-dashoffset: 0;}100%{ stroke-dashoffset: 0;}}@keyframes bgFNYFla_draw_1{0.29239766081871343%{stroke-dashoffset: 116}73.9766081871345%{ stroke-dashoffset: 0;}100%{ stroke-dashoffset: 0;}}@keyframes bgFNYFla_draw_2{0.5847953216374269%{stroke-dashoffset: 59}74.26900584795322%{ stroke-dashoffset: 0;}100%{ stroke-dashoffset: 0;}}@keyframes bgFNYFla_draw_3{0.8771929824561403%{stroke-dashoffset: 116}74.56140350877193%{ stroke-dashoffset: 0;}100%{ stroke-dashoffset: 0;}}@keyframes bgFNYFla_draw_4{1.1695906432748537%{stroke-dashoffset: 59}74.85380116959064%{ stroke-dashoffset: 0;}100%{ stroke-dashoffset: 0;}}@keyframes bgFNYFla_draw_5{1.4619883040935673%{stroke-dashoffset: 116}75.14619883040936%{ stroke-dashoffset: 0;}100%{ stroke-dashoffset: 0;}}@keyframes bgFNYFla_draw_6{1.7543859649122806%{stroke-dashoffset: 59}75.43859649122807%{ stroke-dashoffset: 0;}100%{ stroke-dashoffset: 0;}}@keyframes bgFNYFla_draw_7{2.046783625730994%{stroke-dashoffset: 116}75.73099415204678%{ stroke-dashoffset: 0;}100%{ stroke-dashoffset: 0;}}@keyframes bgFNYFla_draw_8{2.3391812865497075%{stroke-dashoffset: 59}76.0233918128655%{ stroke-dashoffset: 0;}100%{ stroke-dashoffset: 0;}}@keyframes bgFNYFla_draw_9{2.631578947368421%{stroke-dashoffset: 116}76.31578947368422%{ stroke-dashoffset: 0;}100%{ stroke-dashoffset: 0;}}@keyframes bgFNYFla_draw_10{2.9239766081871346%{stroke-dashoffset: 59}76.60818713450293%{ stroke-dashoffset: 0;}100%{ stroke-dashoffset: 0;}}@keyframes bgFNYFla_draw_11{3.216374269005848%{stroke-dashoffset: 116}76.90058479532163%{ stroke-dashoffset: 0;}100%{ stroke-dashoffset: 0;}}@keyframes bgFNYFla_draw_12{3.508771929824561%{stroke-dashoffset: 531}77.19298245614036%{ stroke-dashoffset: 0;}100%{ stroke-dashoffset: 0;}}@keyframes bgFNYFla_draw_13{3.8011695906432745%{stroke-dashoffset: 531}77.48538011695906%{ stroke-dashoffset: 0;}100%{ stroke-dashoffset: 0;}}@keyframes bgFNYFla_draw_14{4.093567251461988%{stroke-dashoffset: 531}77.77777777777779%{ stroke-dashoffset: 0;}100%{ stroke-dashoffset: 0;}}@keyframes bgFNYFla_draw_15{4.385964912280701%{stroke-dashoffset: 531}78.0701754385965%{ stroke-dashoffset: 0;}100%{ stroke-dashoffset: 0;}}@keyframes bgFNYFla_draw_16{4.678362573099415%{stroke-dashoffset: 531}78.36257309941521%{ stroke-dashoffset: 0;}100%{ stroke-dashoffset: 0;}}@keyframes bgFNYFla_draw_17{4.970760233918129%{stroke-dashoffset: 531}78.65497076023391%{ stroke-dashoffset: 0;}100%{ stroke-dashoffset: 0;}}@keyframes bgFNYFla_draw_18{5.263157894736842%{stroke-dashoffset: 531}78.94736842105263%{ stroke-dashoffset: 0;}100%{ stroke-dashoffset: 0;}}</style></svg>
